<mxfile host="65bd71144e">
    <diagram id="cPiKKZRKnHRGuxK3hUJ4" name="Page-1">
        <mxGraphModel dx="395" dy="609" grid="1" gridSize="10" guides="1" tooltips="1" connect="1" arrows="1" fold="1" page="1" pageScale="1" pageWidth="850" pageHeight="1100" math="0" shadow="0">
            <root>
                <mxCell id="0"/>
                <mxCell id="1" parent="0"/>
                <mxCell id="3" value="a" style="rounded=0;whiteSpace=wrap;html=1;fontSize=12;fontStyle=0;strokeWidth=2;" vertex="1" parent="1">
                    <mxGeometry x="170" y="100" width="40" height="60" as="geometry"/>
                </mxCell>
                <mxCell id="4" value="b" style="rounded=0;whiteSpace=wrap;html=1;fontSize=12;fontStyle=0;strokeWidth=2;" vertex="1" parent="1">
                    <mxGeometry x="170" y="190" width="40" height="60" as="geometry"/>
                </mxCell>
                <mxCell id="5" value="c" style="rounded=0;whiteSpace=wrap;html=1;fontSize=12;fontStyle=0;strokeWidth=2;" vertex="1" parent="1">
                    <mxGeometry x="170" y="280" width="40" height="60" as="geometry"/>
                </mxCell>
                <mxCell id="16" value="" style="verticalLabelPosition=bottom;shadow=0;dashed=0;align=center;html=1;verticalAlign=top;shape=mxgraph.electrical.iec_logic_gates.and;points=[[0,0.33,0,0,0],[0,0.66,0,0,0],[1,0.5,0,0,0]];fontSize=12;fontStyle=0;strokeWidth=2;" vertex="1" parent="1">
                    <mxGeometry x="395" y="180" width="60" height="80" as="geometry"/>
                </mxCell>
                <mxCell id="18" value="" style="group;fontSize=12;fontStyle=0;strokeWidth=2;" vertex="1" connectable="0" parent="1">
                    <mxGeometry x="280" y="100" width="80" height="110" as="geometry"/>
                </mxCell>
                <mxCell id="6" value="" style="rounded=0;whiteSpace=wrap;html=1;fontSize=12;fontStyle=0;strokeWidth=2;" vertex="1" parent="18">
                    <mxGeometry width="80" height="110" as="geometry"/>
                </mxCell>
                <mxCell id="7" value="COMP" style="text;html=1;align=center;verticalAlign=middle;whiteSpace=wrap;rounded=0;fontSize=12;fontStyle=0" vertex="1" parent="18">
                    <mxGeometry x="10" width="60" height="30" as="geometry"/>
                </mxCell>
                <mxCell id="9" value="P" style="text;html=1;align=center;verticalAlign=middle;whiteSpace=wrap;rounded=0;fontSize=12;fontStyle=0" vertex="1" parent="18">
                    <mxGeometry y="25" width="20" height="30" as="geometry"/>
                </mxCell>
                <mxCell id="10" value="Q" style="text;html=1;align=center;verticalAlign=middle;whiteSpace=wrap;rounded=0;fontSize=12;fontStyle=0" vertex="1" parent="18">
                    <mxGeometry y="60" width="20" height="30" as="geometry"/>
                </mxCell>
                <mxCell id="12" value="P&amp;gt;Q" style="text;html=1;align=right;verticalAlign=middle;whiteSpace=wrap;rounded=0;fontSize=12;fontStyle=0" vertex="1" parent="18">
                    <mxGeometry x="40" y="40" width="40" height="20" as="geometry"/>
                </mxCell>
                <mxCell id="14" style="edgeStyle=none;html=1;exitX=0.75;exitY=0;exitDx=0;exitDy=0;fontSize=12;fontStyle=0" edge="1" parent="18" source="13" target="12">
                    <mxGeometry relative="1" as="geometry"/>
                </mxCell>
                <mxCell id="13" value="P=Q" style="text;html=1;align=right;verticalAlign=middle;whiteSpace=wrap;rounded=0;fontSize=12;fontStyle=0" vertex="1" parent="18">
                    <mxGeometry x="40" y="60" width="40" height="20" as="geometry"/>
                </mxCell>
                <mxCell id="15" value="P&amp;lt;Q" style="text;html=1;align=right;verticalAlign=middle;whiteSpace=wrap;rounded=0;fontSize=12;fontStyle=0" vertex="1" parent="18">
                    <mxGeometry x="40" y="80" width="40" height="20" as="geometry"/>
                </mxCell>
                <mxCell id="19" value="" style="endArrow=none;html=1;entryX=1;entryY=0.5;entryDx=0;entryDy=0;exitX=0;exitY=0.33;exitDx=0;exitDy=0;exitPerimeter=0;edgeStyle=orthogonalEdgeStyle;rounded=0;curved=0;fontSize=12;fontStyle=0" edge="1" parent="1" source="16" target="12">
                    <mxGeometry width="50" height="50" relative="1" as="geometry">
                        <mxPoint x="430" y="226.39999999999998" as="sourcePoint"/>
                        <mxPoint x="320" y="240" as="targetPoint"/>
                    </mxGeometry>
                </mxCell>
                <mxCell id="20" value="" style="group;fontSize=12;fontStyle=0;strokeWidth=2;strokeColor=none;" vertex="1" connectable="0" parent="1">
                    <mxGeometry x="280" y="230" width="80" height="110" as="geometry"/>
                </mxCell>
                <mxCell id="21" value="" style="rounded=0;whiteSpace=wrap;html=1;fontSize=12;fontStyle=0;strokeWidth=2;" vertex="1" parent="20">
                    <mxGeometry width="80" height="110" as="geometry"/>
                </mxCell>
                <mxCell id="22" value="COMP" style="text;html=1;align=center;verticalAlign=middle;whiteSpace=wrap;rounded=0;fontSize=12;fontStyle=0" vertex="1" parent="20">
                    <mxGeometry x="10" width="60" height="30" as="geometry"/>
                </mxCell>
                <mxCell id="23" value="P" style="text;html=1;align=center;verticalAlign=middle;whiteSpace=wrap;rounded=0;fontSize=12;fontStyle=0" vertex="1" parent="20">
                    <mxGeometry y="30" width="20" height="30" as="geometry"/>
                </mxCell>
                <mxCell id="24" value="Q" style="text;html=1;align=center;verticalAlign=middle;whiteSpace=wrap;rounded=0;fontSize=12;fontStyle=0" vertex="1" parent="20">
                    <mxGeometry y="60" width="20" height="30" as="geometry"/>
                </mxCell>
                <mxCell id="25" value="P&amp;gt;Q" style="text;html=1;align=right;verticalAlign=middle;whiteSpace=wrap;rounded=0;fontSize=12;fontStyle=0" vertex="1" parent="20">
                    <mxGeometry x="40" y="40" width="40" height="20" as="geometry"/>
                </mxCell>
                <mxCell id="26" style="edgeStyle=none;html=1;exitX=0.75;exitY=0;exitDx=0;exitDy=0;fontSize=12;fontStyle=0" edge="1" parent="20" source="27" target="25">
                    <mxGeometry relative="1" as="geometry"/>
                </mxCell>
                <mxCell id="27" value="P=Q" style="text;html=1;align=right;verticalAlign=middle;whiteSpace=wrap;rounded=0;fontSize=12;fontStyle=0" vertex="1" parent="20">
                    <mxGeometry x="40" y="60" width="40" height="20" as="geometry"/>
                </mxCell>
                <mxCell id="28" value="P&amp;lt;Q" style="text;html=1;align=right;verticalAlign=middle;whiteSpace=wrap;rounded=0;fontSize=12;fontStyle=0" vertex="1" parent="20">
                    <mxGeometry x="40" y="80" width="40" height="20" as="geometry"/>
                </mxCell>
                <mxCell id="29" value="" style="endArrow=none;html=1;entryX=1;entryY=0.5;entryDx=0;entryDy=0;exitX=0;exitY=0.66;exitDx=0;exitDy=0;exitPerimeter=0;edgeStyle=orthogonalEdgeStyle;rounded=0;curved=0;fontSize=12;fontStyle=0" edge="1" parent="1" source="16" target="28">
                    <mxGeometry width="50" height="50" relative="1" as="geometry">
                        <mxPoint x="430" y="252.79999999999995" as="sourcePoint"/>
                        <mxPoint x="370" y="180" as="targetPoint"/>
                    </mxGeometry>
                </mxCell>
                <mxCell id="30" value="" style="endArrow=none;html=1;exitX=1;exitY=0.5;exitDx=0;exitDy=0;entryX=0;entryY=0.5;entryDx=0;entryDy=0;rounded=0;edgeStyle=orthogonalEdgeStyle;fontSize=12;fontStyle=0" edge="1" parent="1" source="3" target="9">
                    <mxGeometry width="50" height="50" relative="1" as="geometry">
                        <mxPoint x="260" y="450" as="sourcePoint"/>
                        <mxPoint x="310" y="400" as="targetPoint"/>
                        <Array as="points">
                            <mxPoint x="230" y="130"/>
                            <mxPoint x="230" y="140"/>
                        </Array>
                    </mxGeometry>
                </mxCell>
                <mxCell id="31" value="" style="endArrow=none;html=1;exitX=1;exitY=0.5;exitDx=0;exitDy=0;entryX=0;entryY=0.5;entryDx=0;entryDy=0;rounded=0;edgeStyle=orthogonalEdgeStyle;fontSize=12;fontStyle=0" edge="1" parent="1" source="4" target="10">
                    <mxGeometry width="50" height="50" relative="1" as="geometry">
                        <mxPoint x="220" y="410" as="sourcePoint"/>
                        <mxPoint x="320" y="425" as="targetPoint"/>
                        <Array as="points">
                            <mxPoint x="260" y="220"/>
                            <mxPoint x="260" y="175"/>
                        </Array>
                    </mxGeometry>
                </mxCell>
                <mxCell id="32" value="" style="endArrow=none;html=1;exitX=1;exitY=0.5;exitDx=0;exitDy=0;entryX=0;entryY=0.5;entryDx=0;entryDy=0;rounded=0;edgeStyle=orthogonalEdgeStyle;fontSize=12;fontStyle=0" edge="1" parent="1" source="5" target="24">
                    <mxGeometry width="50" height="50" relative="1" as="geometry">
                        <mxPoint x="220" y="250" as="sourcePoint"/>
                        <mxPoint x="320" y="195" as="targetPoint"/>
                    </mxGeometry>
                </mxCell>
                <mxCell id="33" value="" style="endArrow=none;html=1;entryX=0;entryY=0.5;entryDx=0;entryDy=0;rounded=0;edgeStyle=elbowEdgeStyle;startArrow=oval;startFill=1;jumpStyle=arc;fontSize=12;fontStyle=0" edge="1" parent="1" target="23">
                    <mxGeometry width="50" height="50" relative="1" as="geometry">
                        <mxPoint x="240" y="140" as="sourcePoint"/>
                        <mxPoint x="290" y="165" as="targetPoint"/>
                        <Array as="points">
                            <mxPoint x="240" y="220"/>
                        </Array>
                    </mxGeometry>
                </mxCell>
                <mxCell id="35" value="" style="endArrow=none;html=1;entryX=1;entryY=0.5;entryDx=0;entryDy=0;entryPerimeter=0;startArrow=oval;startFill=1;fontSize=12;fontStyle=0" edge="1" parent="1" target="16">
                    <mxGeometry width="50" height="50" relative="1" as="geometry">
                        <mxPoint x="480" y="220" as="sourcePoint"/>
                        <mxPoint x="370" y="260" as="targetPoint"/>
                    </mxGeometry>
                </mxCell>
            </root>
        </mxGraphModel>
    </diagram>
</mxfile>